/* XPM */
static char * grism_xpm[] = {
"32 32 411 2",
"  	c None",
". 	c #747F81",
"+ 	c #647073",
"@ 	c #454648",
"# 	c #3A3D41",
"$ 	c #4B5358",
"% 	c #6D787C",
"& 	c #696F73",
"* 	c #303438",
"= 	c #525C5F",
"- 	c #8A9699",
"; 	c #596162",
"> 	c #FAFCFC",
", 	c #F9FAFA",
"' 	c #ADB2B4",
") 	c #9CA4A8",
"! 	c #B8C5C7",
"~ 	c #878D8F",
"{ 	c #696C70",
"] 	c #7E8184",
"^ 	c #8A9093",
"/ 	c #7E8486",
"( 	c #5D6265",
"_ 	c #515557",
": 	c #8D908D",
"< 	c #B5C2C5",
"[ 	c #BFC5C5",
"} 	c #9A9E9C",
"| 	c #ABB3B4",
"1 	c #C4CCCD",
"2 	c #CDD9DB",
"3 	c #F7FAFB",
"4 	c #F0F3F3",
"5 	c #CED6D7",
"6 	c #A1A9A9",
"7 	c #4F3A23",
"8 	c #828681",
"9 	c #5D5952",
"0 	c #828786",
"a 	c #B6BBBC",
"b 	c #66635E",
"c 	c #666762",
"d 	c #8C9390",
"e 	c #9DA5A5",
"f 	c #CCD3D3",
"g 	c #C5CCCB",
"h 	c #87908F",
"i 	c #5A605F",
"j 	c #5A6361",
"k 	c #433022",
"l 	c #A09F99",
"m 	c #9FA4A1",
"n 	c #9B9E9E",
"o 	c #6E6D68",
"p 	c #C3C8C8",
"q 	c #9F9F9C",
"r 	c #A2A19D",
"s 	c #615F5A",
"t 	c #5F5E5A",
"u 	c #5E5F5A",
"v 	c #6F726E",
"w 	c #747772",
"x 	c #555551",
"y 	c #3E4342",
"z 	c #595043",
"A 	c #412E20",
"B 	c #85827B",
"C 	c #797B7A",
"D 	c #BBC6CA",
"E 	c #888885",
"F 	c #B4B5B1",
"G 	c #BCBAB7",
"H 	c #B0B0AC",
"I 	c #646059",
"J 	c #625E59",
"K 	c #4C4944",
"L 	c #50534E",
"M 	c #646660",
"N 	c #666761",
"O 	c #434341",
"P 	c #4D3E31",
"Q 	c #48382A",
"R 	c #8F9594",
"S 	c #939695",
"T 	c #412E1F",
"U 	c #574433",
"V 	c #403832",
"W 	c #7C7A76",
"X 	c #CAD2D2",
"Y 	c #A9A8A2",
"Z 	c #EEEEED",
"` 	c #E2E2E0",
" .	c #6F6962",
"..	c #7B7B76",
"+.	c #6D6C66",
"@.	c #555550",
"#.	c #4D4E49",
"$.	c #555852",
"%.	c #56524B",
"&.	c #463425",
"*.	c #3B2F23",
"=.	c #747771",
"-.	c #A1A4A2",
";.	c #A1A6A4",
">.	c #46382C",
",.	c #573F28",
"'.	c #6B5E4F",
").	c #655A51",
"!.	c #BEC0BC",
"~.	c #BFBFBB",
"{.	c #DBE0E1",
"].	c #D8DBD9",
"^.	c #9B9790",
"/.	c #817C73",
"(.	c #5B574E",
"_.	c #50504B",
":.	c #393937",
"<.	c #383935",
"[.	c #554D40",
"}.	c #4D3726",
"|.	c #392D22",
"1.	c #4D4D47",
"2.	c #56544E",
"3.	c #5F5850",
"4.	c #534B42",
"5.	c #44372C",
"6.	c #3E2C1D",
"7.	c #553F2B",
"8.	c #7B6C5D",
"9.	c #6B5B4D",
"0.	c #574738",
"a.	c #7F7E7B",
"b.	c #706962",
"c.	c #55473A",
"d.	c #4D3E2F",
"e.	c #5D5040",
"f.	c #655D51",
"g.	c #5E5C56",
"h.	c #64615B",
"i.	c #78634D",
"j.	c #4B3625",
"k.	c #545249",
"l.	c #3D3931",
"m.	c #3A2F25",
"n.	c #40332A",
"o.	c #443124",
"p.	c #34251A",
"q.	c #2C2019",
"r.	c #31241A",
"s.	c #32251B",
"t.	c #402F22",
"u.	c #5F5A56",
"v.	c #554C43",
"w.	c #47392D",
"x.	c #3B2D22",
"y.	c #3C2E1F",
"z.	c #493928",
"A.	c #796C5D",
"B.	c #8C7D6D",
"C.	c #5A4533",
"D.	c #3C2E23",
"E.	c #8A7567",
"F.	c #463529",
"G.	c #25211C",
"H.	c #2C2119",
"I.	c #37271C",
"J.	c #462B1C",
"K.	c #412C1F",
"L.	c #211A17",
"M.	c #171416",
"N.	c #352C25",
"O.	c #80766C",
"P.	c #827E7A",
"Q.	c #585148",
"R.	c #4D4135",
"S.	c #453A2F",
"T.	c #564A3D",
"U.	c #35291E",
"V.	c #33261B",
"W.	c #372B20",
"X.	c #342C23",
"Y.	c #2E2E2A",
"Z.	c #414240",
"`.	c #6D5646",
" +	c #543322",
".+	c #241913",
"++	c #171617",
"@+	c #1C1612",
"#+	c #291D15",
"$+	c #3F2616",
"%+	c #51351E",
"&+	c #52402C",
"*+	c #382D23",
"=+	c #3A2E23",
"-+	c #6F5E4D",
";+	c #605243",
">+	c #55483B",
",+	c #5D5347",
"'+	c #68635A",
")+	c #8C8479",
"!+	c #403328",
"~+	c #201F1E",
"{+	c #484A48",
"]+	c #37302A",
"^+	c #2B2C2A",
"/+	c #2D1C13",
"(+	c #231710",
"_+	c #131213",
":+	c #111013",
"<+	c #141313",
"[+	c #191511",
"}+	c #281B11",
"|+	c #382414",
"1+	c #594227",
"2+	c #4F3D29",
"3+	c #3E3329",
"4+	c #352417",
"5+	c #413225",
"6+	c #4D3B2A",
"7+	c #554637",
"8+	c #493B2E",
"9+	c #4A3A2A",
"0+	c #28201A",
"a+	c #25221E",
"b+	c #40382E",
"c+	c #2C2A26",
"d+	c #393C38",
"e+	c #322217",
"f+	c #25160E",
"g+	c #231A13",
"h+	c #101011",
"i+	c #0E0E11",
"j+	c #131314",
"k+	c #171615",
"l+	c #1B1715",
"m+	c #201914",
"n+	c #3A2B1C",
"o+	c #4A3722",
"p+	c #33271E",
"q+	c #261C14",
"r+	c #3D2F24",
"s+	c #53412E",
"t+	c #47321F",
"u+	c #342518",
"v+	c #2C2118",
"w+	c #2D2721",
"x+	c #27231D",
"y+	c #29251F",
"z+	c #232524",
"A+	c #3A3E39",
"B+	c #261C13",
"C+	c #281B12",
"D+	c #1A1511",
"E+	c #121214",
"F+	c #111214",
"G+	c #0C0D11",
"H+	c #0F1013",
"I+	c #121113",
"J+	c #151415",
"K+	c #29211A",
"L+	c #3B2C1D",
"M+	c #2B1F16",
"N+	c #2D1D12",
"O+	c #4D3B2C",
"P+	c #71665A",
"Q+	c #4B331D",
"R+	c #2E2014",
"S+	c #29241D",
"T+	c #2C2923",
"U+	c #1D1B19",
"V+	c #1A1C1D",
"W+	c #2A2016",
"X+	c #251B13",
"Y+	c #131111",
"Z+	c #1B1B1B",
"`+	c #131315",
" @	c #0E0E12",
".@	c #121012",
"+@	c #201A15",
"@@	c #34281C",
"#@	c #2C1F15",
"$@	c #3D2715",
"%@	c #5F462C",
"&@	c #867A6A",
"*@	c #53381E",
"=@	c #39281A",
"-@	c #3B3831",
";@	c #272623",
">@	c #1B1A1B",
",@	c #121215",
"'@	c #191D1C",
")@	c #503E2B",
"!@	c #191412",
"~@	c #121114",
"{@	c #191A1B",
"]@	c #101113",
"^@	c #161616",
"/@	c #211E1B",
"(@	c #2D2720",
"_@	c #31271E",
":@	c #4D3B26",
"<@	c #8B7B64",
"[@	c #B2A695",
"}@	c #786144",
"|@	c #58452E",
"1@	c #403F39",
"2@	c #222321",
"3@	c #272827",
"4@	c #1E201E",
"5@	c #332C22",
"6@	c #372A1F",
"7@	c #100F10",
"8@	c #101013",
"9@	c #212220",
"0@	c #131416",
"a@	c #1E1E1D",
"b@	c #262622",
"c@	c #302C27",
"d@	c #332A20",
"e@	c #453321",
"f@	c #837360",
"g@	c #AE9E8D",
"h@	c #8B745C",
"i@	c #5E4932",
"j@	c #383730",
"k@	c #232825",
"l@	c #1A191A",
"m@	c #242422",
"n@	c #1E1B17",
"o@	c #151314",
"p@	c #0D0C10",
"q@	c #31322E",
"r@	c #131316",
"s@	c #161518",
"t@	c #1C1B1A",
"u@	c #22211E",
"v@	c #2E271D",
"w@	c #392B1D",
"x@	c #382718",
"y@	c #402D1B",
"z@	c #352315",
"A@	c #35281C",
"B@	c #312D26",
"C@	c #343232",
"D@	c #302E2A",
"E@	c #1E1A16",
"F@	c #100F12",
"G@	c #100F11",
"H@	c #2F302C",
"I@	c #141416",
"J@	c #181818",
"K@	c #191919",
"L@	c #1E1C18",
"M@	c #292119",
"N@	c #251C13",
"O@	c #261B12",
"P@	c #221A14",
"Q@	c #24201B",
"R@	c #2C2929",
"S@	c #484742",
"T@	c #574331",
"U@	c #1E1A17",
"V@	c #35322C",
"W@	c #171818",
"X@	c #111113",
"Y@	c #191714",
"Z@	c #151311",
"`@	c #141310",
" #	c #181714",
".#	c #24201F",
"+#	c #151315",
"@#	c #292826",
"##	c #2A2823",
"$#	c #7C654B",
"%#	c #594B3B",
"&#	c #131112",
"*#	c #0F0E0F",
"=#	c #121111",
"-#	c #121211",
";#	c #1C191A",
">#	c #101012",
",#	c #1C1B19",
"'#	c #22211D",
")#	c #52443C",
"!#	c #221916",
"~#	c #121011",
"{#	c #0D0D10",
"]#	c #0F100F",
"^#	c #141414",
"/#	c #5A4737",
"(#	c #847368",
"_#	c #544842",
":#	c #201817",
"<#	c #17120F",
"[#	c #111112",
"}#	c #2C221D",
"|#	c #362A27",
"1#	c #261D1A",
"2#	c #1E1717",
"3#	c #1B1917",
"4#	c #1B1C1B",
"5#	c #141515",
"6#	c #141312",
"7#	c #33261F",
"8#	c #3A2D24",
"9#	c #281F1A",
"0#	c #231B17",
"a#	c #171819",
"b#	c #111012",
"c#	c #121213",
"d#	c #0D0C0E",
"                                                                ",
"                                                                ",
"                                        . +                     ",
"                                        @ # $ % &               ",
"                                              * = -       ;     ",
"                                    > , ' ) ! ~ { ] ^ / ( _     ",
"                                  : < [ } | 1 2 3 4 5 6         ",
"                            7   8 9 0 a b c d e f g h i j       ",
"                            k l m n o p q r s t u v w x y z     ",
"                            A B C D E F G H I J K L M N O P Q   ",
"                        R S T U V W X Y Z `  ...+.@.#.$.%.&.*.  ",
"                      =.-.;.>.,.'.).!.~.{.].^./.(._.:.<.[.}.|.  ",
"                    1.2.3.4.5.6.7.8.9.0.a.b.c.d.e.f.g.h.i.j.    ",
"                    k.l.m.n.o.p.q.r.s.t.u.v.w.x.y.z.A.B.C.D.    ",
"                  E.F.G.H.I.J.K.L.M.N.O.P.Q.R.S.T.U.V.W.X.Y.Z.  ",
"                `. +.+++@+#+$+%+&+*+=+-+;+>+,+'+)+!+~+{+]+^+    ",
"                /+(+_+:+<+[+}+|+1+2+3+4+5+6+7+8+9+0+a+b+c+d+    ",
"              e+f+g+h+i+j+k+l+m+n+o+p+q+r+s+t+u+v+w+x+y+z+A+    ",
"              B+C+D+E+F+G+H+I+J+K+L+M+N+O+P+Q+R+S+T+U+++V+      ",
"              W+X+Y+Z+`+G+ @H+.@+@@@#@$@%@&@*@=@-@;@>@,@'@      ",
"              )@!@~@,@H+{@]@]@^@/@(@_@:@<@[@}@|@1@2@3@~@4@      ",
"            5@6@7@8@8@    9@0@a@b@c@d@e@f@g@h@i@j@k@  l@m@      ",
"            n@o@p@        q@r@s@t@u@v@w@x@y@z@A@B@    C@D@      ",
"            E@F@G@        H@I@,@J@K@L@M@N@O@P@Q@      R@S@      ",
"          T@U@ @          V@W@X@X@    Y@Z@`@ #      .#+#@###    ",
"        $#%#&#                        *#=#-#        ;#>#,#'#    ",
"        )#!#:+                      ~#{#]#^#                    ",
"    /#(#_#:#`+                      <#*#=#[#                    ",
"    }#|#1#2#                      3#4#5#6#                      ",
"    7#8#9#0#                      I@a#I@b#                      ",
"                                  c#[#i+d#                      ",
"                                                                "};
